<svg width="351" height="351" viewBox="0 0 351 351" fill="none" xmlns="http://www.w3.org/2000/svg">
<path d="M175.419 171.275L299.894 143.894L194.919 131.625L175.419 171.275Z" fill="#2eb1e6"/>
<path d="M338.975 127.725L290.956 68.0063C289.25 65.8125 285.35 63.5376 282.019 63.5376L265.85 62.9688C263.087 62.9688 261.95 60.7751 263.087 57.9313L269.262 48.4251C270.969 45.6626 270.969 41.7625 268.694 39.4875L253.094 19.9875C251.387 17.7938 246.919 15.5188 244.156 15.5188H106.844C104.081 15.5188 99.6125 17.225 97.9062 19.9875L11.8625 127.725C10.1562 129.919 9.1 134.388 9.66875 137.231L40.3812 271.213C40.95 273.975 43.7125 277.875 46.5562 279.013L170.463 338.731C173.225 339.869 177.694 339.869 180.538 338.731L304.444 279.013C307.206 277.875 310.05 273.975 310.619 271.213L341.331 137.231C341.737 134.469 340.681 130 338.975 127.725ZM230.669 57.4438L212.225 95.9563L265.281 100.994L299.894 144.544L275.356 252.281L175.419 300.3L135.2 280.8L75.4812 251.794L50.9437 143.894L120.169 57.3626H230.669V57.4438Z" fill="#2eb1e6"/>
</svg>
